<?xml version="1.0" encoding="utf-8"?><svg xmlns="http://www.w3.org/2000/svg" xmlns:xlink="http://www.w3.org/1999/xlink" width="1366" height="649" preserveAspectRatio="xMidYMid" viewBox="0 0 1366 649" style="z-index:1;margin-right:-2px;display:block;background-repeat-y:initial;background-repeat-x:initial;background-color:rgb(255, 255, 255);animation-play-state:paused" ><g transform="translate(683,324.5) scale(1,1) translate(-683,-324.5)" style="transform:matrix(1, 0, 0, 1, 0, 0);animation-play-state:paused" ><defs style="animation-play-state:paused" ><linearGradient id="ldbk-photon-oouek120i9-lg" x1="658" x2="1366" y1="0" y2="0" gradientUnits="userSpaceOnUse" style="animation-play-state:paused" ><stop stop-color="#1d3f72" offset="0" style="animation-play-state:paused" ></stop>

    
<stop stop-color="#34ffef" offset="1" style="animation-play-state:paused" ></stop></linearGradient>

  
<mask id="ldbk-photon-oouek120i9-mask" style="animation-play-state:paused" ><g style="animation-play-state:paused" ><path d="M1666 -0.5 L667.2067434861093 -0.5 A15 15 0 0 1 667.2067434861093 30.5 L1666 30.5" fill="#fff" transform="matrix(1,0,0,1,37.36711502075195,0)" style="transform:matrix(1, 0, 0, 1, 37.3671, 0);animation-play-state:paused" ></path>
<path d="M1407.5570030076574 -0.5 L1419.1140060153148 -0.5 A15 15 0 0 1 1419.1140060153148 30.5 L1407.5570030076574 30.5 A15 15 0 0 1 1407.5570030076574 -0.5" fill="#000" transform="matrix(1,0,0,1,0,0)" opacity="1" style="transform:matrix(1, 0, 0, 1, 0, 0);animation-play-state:paused" ></path>
<path d="M1666 29.5 L638.847973676232 29.5 A15 15 0 0 0 638.847973676232 60.5 L1666 60.5" fill="#fff" transform="matrix(1,0,0,1,-13.025781631469727,0)" style="transform:matrix(1, 0, 0, 1, -13.0258, 0);animation-play-state:paused" ></path>
<path d="M737.5852049530115 29.5 L753.7082608052733 29.5 A15 15 0 0 1 753.7082608052733 60.5 L737.5852049530115 60.5 A15 15 0 0 1 737.5852049530115 29.5" fill="#fff" transform="matrix(1,0,0,1,0,0)" opacity="1" style="transform:matrix(1, 0, 0, 1, 0, 0);animation-play-state:paused" ></path>
<path d="M1666 59.5 L660.8646646984414 59.5 A15 15 0 0 1 660.8646646984414 90.5 L1666 90.5" fill="#fff" transform="matrix(1,0,0,1,0.33715271949768066,0)" style="transform:matrix(1, 0, 0, 1, 0.337153, 0);animation-play-state:paused" ></path>
<path d="M1421.7036912281742 59.5 L1447.4073824563484 59.5 A15 15 0 0 1 1447.4073824563484 90.5 L1421.7036912281742 90.5 A15 15 0 0 1 1421.7036912281742 59.5" fill="#000" transform="matrix(1,0,0,1,-751.9818725585938,0)" opacity="0.649351" style="transform:matrix(1, 0, 0, 1, -751.982, 0);opacity:0.649351;animation-play-state:paused" ></path>
<path d="M1666 89.5 L631.22755266787 89.5 A15 15 0 0 0 631.22755266787 120.5 L1666 120.5" fill="#fff" transform="matrix(1,0,0,1,-30.954341888427734,0)" style="transform:matrix(1, 0, 0, 1, -30.9543, 0);animation-play-state:paused" ></path>
<path d="M704.3642831329003 89.5 L734.3251632957996 89.5 A15 15 0 0 1 734.3251632957996 120.5 L704.3642831329003 120.5 A15 15 0 0 1 704.3642831329003 89.5" fill="#fff" transform="matrix(1,0,0,1,0,0)" opacity="0.25974" style="transform:matrix(1, 0, 0, 1, 0, 0);opacity:0.25974;animation-play-state:paused" ></path>
<path d="M1666 119.5 L652.9754990707557 119.5 A15 15 0 0 1 652.9754990707557 150.5 L1666 150.5" fill="#fff" transform="matrix(1,0,0,1,0.4568493664264679,0)" style="transform:matrix(1, 0, 0, 1, 0.456849, 0);animation-play-state:paused" ></path>
<path d="M1422.5998033306257 119.5 L1449.1996066612514 119.5 A15 15 0 0 1 1449.1996066612514 150.5 L1422.5998033306257 150.5 A15 15 0 0 1 1422.5998033306257 119.5" fill="#000" transform="matrix(1,0,0,1,-689.4651489257812,0)" opacity="0.51948" style="transform:matrix(1, 0, 0, 1, -689.465, 0);opacity:0.51948;animation-play-state:paused" ></path>
<path d="M1666 149.5 L604.8322951439739 149.5 A15 15 0 0 0 604.8322951439739 180.5 L1666 180.5" fill="#fff" transform="matrix(1,0,0,1,-9.114461898803711,0)" style="transform:matrix(1, 0, 0, 1, -9.11446, 0);animation-play-state:paused" ></path>
<path d="M682.6401139775198 149.5 L710.2696914342945 149.5 A15 15 0 0 1 710.2696914342945 180.5 L682.6401139775198 180.5 A15 15 0 0 1 682.6401139775198 149.5" fill="#fff" transform="matrix(1,0,0,1,0,0)" opacity="0.454546" style="transform:matrix(1, 0, 0, 1, 0, 0);opacity:0.454546;animation-play-state:paused" ></path>
<path d="M1666 179.5 L655.6347744931475 179.5 A15 15 0 0 1 655.6347744931475 210.5 L1666 210.5" fill="#fff" transform="matrix(1,0,0,1,28.99541664123535,0)" style="transform:matrix(1, 0, 0, 1, 28.9954, 0);animation-play-state:paused" ></path>
<path d="M1411.04684683247 179.5 L1426.09369366494 179.5 A15 15 0 0 1 1426.09369366494 210.5 L1411.04684683247 210.5 A15 15 0 0 1 1411.04684683247 179.5" fill="#000" transform="matrix(1,0,0,1,-1082.322021484375,0)" opacity="0.519481" style="transform:matrix(1, 0, 0, 1, -1082.32, 0);opacity:0.519481;animation-play-state:paused" ></path>
<path d="M1666 209.5 L585.561791689601 209.5 A15 15 0 0 0 585.561791689601 240.5 L1666 240.5" fill="#fff" transform="matrix(1,0,0,1,-32.75830841064453,0)" style="transform:matrix(1, 0, 0, 1, -32.7583, 0);animation-play-state:paused" ></path>
<path d="M723.2134798670661 209.5 L762.7910314809192 209.5 A15 15 0 0 1 762.7910314809192 240.5 L723.2134798670661 240.5 A15 15 0 0 1 723.2134798670661 209.5" fill="#fff" transform="matrix(1,0,0,1,0,0)" opacity="0.0649351" style="transform:matrix(1, 0, 0, 1, 0, 0);opacity:0.0649351;animation-play-state:paused" ></path>
<path d="M1666 239.5 L643.7548596947435 239.5 A15 15 0 0 1 643.7548596947435 270.5 L1666 270.5" fill="#fff" transform="matrix(1,0,0,1,39.93663787841797,0)" style="transform:matrix(1, 0, 0, 1, 39.9366, 0);animation-play-state:paused" ></path>
<path d="M1435.6349791155537 239.5 L1475.2699582311075 239.5 A15 15 0 0 1 1475.2699582311075 270.5 L1435.6349791155537 270.5 A15 15 0 0 1 1435.6349791155537 239.5" fill="#000" transform="matrix(1,0,0,1,-107.55146789550781,0)" opacity="1" style="transform:matrix(1, 0, 0, 1, -107.551, 0);animation-play-state:paused" ></path>
<path d="M1666 269.5 L629.9183469877305 269.5 A15 15 0 0 0 629.9183469877305 300.5 L1666 300.5" fill="#fff" transform="matrix(1,0,0,1,-0.4858894348144531,0)" style="transform:matrix(1, 0, 0, 1, -0.485889, 0);animation-play-state:paused" ></path>
<path d="M717.7884878177144 269.5 L728.7144541139497 269.5 A15 15 0 0 1 728.7144541139497 300.5 L717.7884878177144 300.5 A15 15 0 0 1 717.7884878177144 269.5" fill="#fff" transform="matrix(1,0,0,1,0,0)" opacity="0.779221" style="transform:matrix(1, 0, 0, 1, 0, 0);opacity:0.779221;animation-play-state:paused" ></path>
<path d="M1666 299.5 L647.7882520513645 299.5 A15 15 0 0 1 647.7882520513645 330.5 L1666 330.5" fill="#fff" transform="matrix(1,0,0,1,26.549713134765625,0)" style="transform:matrix(1, 0, 0, 1, 26.5497, 0);animation-play-state:paused" ></path>
<path d="M1423.614496338444 299.5 L1451.228992676888 299.5 A15 15 0 0 1 1451.228992676888 330.5 L1423.614496338444 330.5 A15 15 0 0 1 1423.614496338444 299.5" fill="#000" transform="matrix(1,0,0,1,-798.1384887695312,0)" opacity="0.389611" style="transform:matrix(1, 0, 0, 1, -798.138, 0);opacity:0.389611;animation-play-state:paused" ></path>
<path d="M1666 329.5 L628.8728642947333 329.5 A15 15 0 0 0 628.8728642947333 360.5 L1666 360.5" fill="#fff" transform="matrix(1,0,0,1,0,0)" style="transform:matrix(1, 0, 0, 1, 0, 0);animation-play-state:paused" ></path>
<path d="M741.3301336062796 329.5 L761.0635462562723 329.5 A15 15 0 0 1 761.0635462562723 360.5 L741.3301336062796 360.5 A15 15 0 0 1 741.3301336062796 329.5" fill="#fff" transform="matrix(1,0,0,1,0,0)" opacity="0.714285" style="transform:matrix(1, 0, 0, 1, 0, 0);opacity:0.714285;animation-play-state:paused" ></path>
<path d="M1666 359.5 L696.3318145420187 359.5 A15 15 0 0 1 696.3318145420187 390.5 L1666 390.5" fill="#fff" transform="matrix(1,0,0,1,26.424388885498047,0)" style="transform:matrix(1, 0, 0, 1, 26.4244, 0);animation-play-state:paused" ></path>
<path d="M1435.5133291716843 359.5 L1475.0266583433686 359.5 A15 15 0 0 1 1475.0266583433686 390.5 L1435.5133291716843 390.5 A15 15 0 0 1 1435.5133291716843 359.5" fill="#000" transform="matrix(1,0,0,1,-693.742919921875,0)" opacity="0.519481" style="transform:matrix(1, 0, 0, 1, -693.743, 0);opacity:0.519481;animation-play-state:paused" ></path>
<path d="M1666 389.5 L642.059835183175 389.5 A15 15 0 0 0 642.059835183175 420.5 L1666 420.5" fill="#fff" transform="matrix(1,0,0,1,-7.078107833862305,0)" style="transform:matrix(1, 0, 0, 1, -7.07811, 0);animation-play-state:paused" ></path>
<path d="M754.4277177189631 389.5 L767.3513834273302 389.5 A15 15 0 0 1 767.3513834273302 420.5 L754.4277177189631 420.5 A15 15 0 0 1 754.4277177189631 389.5" fill="#fff" transform="matrix(1,0,0,1,0,0)" opacity="0.974026" style="transform:matrix(1, 0, 0, 1, 0, 0);opacity:0.974026;animation-play-state:paused" ></path>
<path d="M1666 419.5 L707.5821746970117 419.5 A15 15 0 0 1 707.5821746970117 450.5 L1666 450.5" fill="#fff" transform="matrix(1,0,0,1,27.62139320373535,0)" style="transform:matrix(1, 0, 0, 1, 27.6214, 0);animation-play-state:paused" ></path>
<path d="M1406.3839157518305 419.5 L1416.767831503661 419.5 A15 15 0 0 1 1416.767831503661 450.5 L1406.3839157518305 450.5 A15 15 0 0 1 1406.3839157518305 419.5" fill="#000" transform="matrix(1,0,0,1,-1364.552490234375,0)" opacity="0.12987" style="transform:matrix(1, 0, 0, 1, -1364.55, 0);opacity:0.12987;animation-play-state:paused" ></path>
<path d="M1666 449.5 L691.5875821839118 449.5 A15 15 0 0 0 691.5875821839118 480.5 L1666 480.5" fill="#fff" transform="matrix(1,0,0,1,-45.080718994140625,0)" style="transform:matrix(1, 0, 0, 1, -45.0807, 0);animation-play-state:paused" ></path>
<path d="M748.8794105577977 449.5 L774.1522514227419 449.5 A15 15 0 0 1 774.1522514227419 480.5 L748.8794105577977 480.5 A15 15 0 0 1 748.8794105577977 449.5" fill="#fff" transform="matrix(1,0,0,1,0,0)" opacity="1" style="transform:matrix(1, 0, 0, 1, 0, 0);animation-play-state:paused" ></path>
<path d="M1666 479.5 L722.6739847876887 479.5 A15 15 0 0 1 722.6739847876887 510.5 L1666 510.5" fill="#fff" transform="matrix(1,0,0,1,24.754199981689453,0)" style="transform:matrix(1, 0, 0, 1, 24.7542, 0);animation-play-state:paused" ></path>
<path d="M1415.4691898950937 479.5 L1434.9383797901874 479.5 A15 15 0 0 1 1434.9383797901874 510.5 L1415.4691898950937 510.5 A15 15 0 0 1 1415.4691898950937 479.5" fill="#000" transform="matrix(1,0,0,1,-875.1474609375,0)" opacity="0.64935" style="transform:matrix(1, 0, 0, 1, -875.147, 0);opacity:0.64935;animation-play-state:paused" ></path>
<path d="M1666 509.5 L665.6282732161446 509.5 A15 15 0 0 0 665.6282732161446 540.5 L1666 540.5" fill="#fff" transform="matrix(1,0,0,1,-8.988143920898438,0)" style="transform:matrix(1, 0, 0, 1, -8.98814, 0);animation-play-state:paused" ></path>
<path d="M786.0691682632673 509.5 L803.8143003644902 509.5 A15 15 0 0 1 803.8143003644902 540.5 L786.0691682632673 540.5 A15 15 0 0 1 786.0691682632673 509.5" fill="#fff" transform="matrix(1,0,0,1,0,0)" opacity="0.0649341" style="transform:matrix(1, 0, 0, 1, 0, 0);opacity:0.0649341;animation-play-state:paused" ></path>
<path d="M1666 539.5 L715.9381095835569 539.5 A15 15 0 0 1 715.9381095835569 570.5 L1666 570.5" fill="#fff" transform="matrix(1,0,0,1,3.584268569946289,0)" style="transform:matrix(1, 0, 0, 1, 3.58427, 0);animation-play-state:paused" ></path>
<path d="M1426.6717947620411 539.5 L1457.3435895240823 539.5 A15 15 0 0 1 1457.3435895240823 570.5 L1426.6717947620411 570.5 A15 15 0 0 1 1426.6717947620411 539.5" fill="#000" transform="matrix(1,0,0,1,-551.41650390625,0)" opacity="0.779221" style="transform:matrix(1, 0, 0, 1, -551.417, 0);opacity:0.779221;animation-play-state:paused" ></path>
<path d="M1666 569.5 L674.6926826911648 569.5 A15 15 0 0 0 674.6926826911648 600.5 L1666 600.5" fill="#fff" transform="matrix(1,0,0,1,-22.325115203857422,0)" style="transform:matrix(1, 0, 0, 1, -22.3251, 0);animation-play-state:paused" ></path>
<path d="M731.995961427437 569.5 L742.5457850280848 569.5 A15 15 0 0 1 742.5457850280848 600.5 L731.995961427437 600.5 A15 15 0 0 1 731.995961427437 569.5" fill="#fff" transform="matrix(1,0,0,1,0,0)" opacity="0.584416" style="transform:matrix(1, 0, 0, 1, 0, 0);opacity:0.584416;animation-play-state:paused" ></path>
<path d="M1666 599.5 L693.4899160942724 599.5 A15 15 0 0 1 693.4899160942724 630.5 L1666 630.5" fill="#fff" transform="matrix(1,0,0,1,32.754188537597656,0)" style="transform:matrix(1, 0, 0, 1, 32.7542, 0);animation-play-state:paused" ></path>
<path d="M1415.4197958213376 599.5 L1434.8395916426753 599.5 A15 15 0 0 1 1434.8395916426753 630.5 L1415.4197958213376 630.5 A15 15 0 0 1 1415.4197958213376 599.5" fill="#000" transform="matrix(1,0,0,1,-752.3251953125,0)" opacity="0.779221" style="transform:matrix(1, 0, 0, 1, -752.325, 0);opacity:0.779221;animation-play-state:paused" ></path>
<path d="M1666 629.5 L631.5003903198088 629.5 A15 15 0 0 0 631.5003903198088 660.5 L1666 660.5" fill="#fff" transform="matrix(1,0,0,1,-38.441566467285156,0)" style="transform:matrix(1, 0, 0, 1, -38.4416, 0);animation-play-state:paused" ></path>
<path d="M754.0125500457297 629.5 L781.2773955022584 629.5 A15 15 0 0 1 781.2773955022584 660.5 L754.0125500457297 660.5 A15 15 0 0 1 754.0125500457297 629.5" fill="#fff" transform="matrix(1,0,0,1,0,0)" opacity="0.584415" style="transform:matrix(1, 0, 0, 1, 0, 0);opacity:0.584415;animation-play-state:paused" ></path></g></mask></defs>


<rect x="0" y="0" width="1366" height="649" fill="url(#ldbk-photon-oouek120i9-lg)" mask="url(#ldbk-photon-oouek120i9-mask)" style="animation-play-state:paused" ></rect></g></svg>