<?xml version="1.0" encoding="utf-8"?><svg xmlns="http://www.w3.org/2000/svg" xmlns:xlink="http://www.w3.org/1999/xlink" width="1366" height="592" preserveAspectRatio="xMidYMid" viewBox="0 0 1366 592" style="z-index:1;margin-right:-2px;display:block;background-repeat-y:initial;background-repeat-x:initial;background-color:rgb(255, 255, 255);animation-play-state:paused" ><g transform="translate(683,296) scale(1,1) translate(-683,-296)" style="transform:matrix(1, 0, 0, 1, 0, 0);animation-play-state:paused" ><linearGradient id="lg-0.3061404197200206" x1="0" x2="1" y1="0" y2="0" style="animation-play-state:paused" ><stop stop-color="#ff00ff" offset="0" style="animation-play-state:paused" ></stop>

  
<stop stop-color="#00ffff" offset="1" style="animation-play-state:paused" ></stop></linearGradient>
<path d="M 0 0 L 0 567.427 Q 136.6 461.708 273.2 431.943 T 546.4 369.808 T 819.6 362.439 T 1092.8 246.017 T 1366 284.936 L 1366 0 Z" fill="url(#lg-0.3061404197200206)" opacity="0.4" style="opacity:0.4;animation-play-state:paused" ></path>
<path d="M 0 0 L 0 560.882 Q 136.6 488.375 273.2 457.828 T 546.4 431.696 T 819.6 355.901 T 1092.8 362.519 T 1366 270.831 L 1366 0 Z" fill="url(#lg-0.3061404197200206)" opacity="0.4" style="opacity:0.4;animation-play-state:paused" ></path>
<path d="M 0 0 L 0 564.483 Q 136.6 515.562 273.2 481.182 T 546.4 441.078 T 819.6 332.922 T 1092.8 351.613 T 1366 305.823 L 1366 0 Z" fill="url(#lg-0.3061404197200206)" opacity="0.4" style="opacity:0.4;animation-play-state:paused" ></path>
<path d="M 0 0 L 0 493.552 Q 136.6 566.457 273.2 527.039 T 546.4 449.133 T 819.6 352.747 T 1092.8 254.734 T 1366 239.941 L 1366 0 Z" fill="url(#lg-0.3061404197200206)" opacity="0.4" style="opacity:0.4;animation-play-state:paused" ></path>
<path d="M 0 0 L 0 536.575 Q 136.6 488.051 273.2 460.198 T 546.4 415.921 T 819.6 385.332 T 1092.8 301.43 T 1366 271.636 L 1366 0 Z" fill="url(#lg-0.3061404197200206)" opacity="0.4" style="opacity:0.4;animation-play-state:paused" ></path></g></svg>